<?xml version="1.0" encoding="UTF-8"?>
<svg id="Layer_2" data-name="Layer 2" xmlns="http://www.w3.org/2000/svg" viewBox="0 0 248.05 154">
  <defs>
    <style>
      .cls-1 {
        stroke-width: 1.08px;
      }

      .cls-1, .cls-2, .cls-3, .cls-4 {
        fill: none;
        stroke: #1d1d1b;
      }

      .cls-1, .cls-3, .cls-4 {
        stroke-linecap: round;
        stroke-linejoin: round;
      }

      .cls-2 {
        stroke-miterlimit: 10;
        stroke-width: 1.32px;
      }

      .cls-3 {
        stroke-width: 1.18px;
      }

      .cls-4 {
        stroke-width: 1.18px;
      }
    </style>
  </defs>
  <g id="_Ñëîé_1" data-name="Ñëîé 1">
    <polygon class="cls-2" points="62.91 64.76 46.72 55.42 30.54 64.76 30.54 83.46 46.72 92.8 62.91 83.46 62.91 64.76"/>
    <polyline class="cls-2" points="92.34 85.98 81.17 92.43 81.17 111.12 97.36 120.47 113.55 111.12 113.55 92.43 102.92 86.29"/>
    <polygon class="cls-2" points="145.9 92.43 129.71 83.08 113.52 92.43 113.52 111.12 129.71 120.47 145.9 111.12 145.9 92.43"/>
    <polyline class="cls-2" points="186.8 114.39 198.75 121.29 214.94 111.95 214.94 93.25 198.75 83.91 182.56 93.25 182.56 104.73"/>
    <polyline class="cls-2" points="170.7 62.83 180.59 57.12 180.59 38.43 164.4 29.09 148.22 38.43 148.22 57.12 158.98 63.34"/>
    <polygon points="80.85 92.4 63.1 81.16 61.17 85.06 80.85 92.4"/>
    <polygon points="181.76 92.85 173.13 84.31 170.67 87.91 181.76 92.85"/>
    <polygon points="147.62 38.08 139 29.54 136.53 33.14 147.62 38.08"/>
    <polygon points="215.94 92.63 227.02 87.67 224.55 84.07 215.94 92.63"/>
    <line class="cls-2" x1="34.29" y1="66.97" x2="45.85" y2="60.14"/>
    <line class="cls-2" x1="118.15" y1="94.11" x2="129.71" y2="87.28"/>
    <line class="cls-2" x1="187.57" y1="144.04" x2="199.12" y2="137.21"/>
    <line class="cls-2" x1="146.11" y1="92.34" x2="157.67" y2="85.52"/>
    <line class="cls-2" x1="33.52" y1="81.06" x2="46.72" y2="88.76"/>
    <line class="cls-2" x1="116.65" y1="109.11" x2="129.85" y2="116.82"/>
    <line class="cls-2" x1="180.72" y1="57.15" x2="191.79" y2="63.61"/>
    <line class="cls-2" x1="59.72" y1="66.13" x2="59.83" y2="82.42"/>
    <line class="cls-2" x1="142.68" y1="93.63" x2="142.79" y2="109.92"/>
    <line class="cls-2" x1="198.7" y1="121.49" x2="198.81" y2="137.78"/>
    <line class="cls-2" x1="30.54" y1="64.76" x2="21.19" y2="58.27"/>
    <line class="cls-2" x1="95.19" y1="119.21" x2="95.05" y2="130.71"/>
    <line class="cls-2" x1="100.06" y1="119.21" x2="99.92" y2="130.71"/>
    <line class="cls-2" x1="130.02" y1="120.34" x2="129.88" y2="131.83"/>
    <g>
      <path d="M1.38,50.84v4.47H6.54v-4.47h1.39v10.68h-1.39v-5.01H1.38v5.01H0v-10.68H1.38Z"/>
      <path d="M19.46,56.07c0,3.68-2.23,5.62-4.96,5.62s-4.8-2.19-4.8-5.42c0-3.39,2.11-5.61,4.96-5.61s4.8,2.23,4.8,5.4Zm-8.29,.17c0,2.28,1.24,4.32,3.41,4.32s3.42-2.01,3.42-4.44c0-2.12-1.11-4.34-3.41-4.34s-3.42,2.11-3.42,4.45Z"/>
    </g>
    <g>
      <path d="M116.96,133.57v4.47h5.16v-4.47h1.39v10.68h-1.39v-5.01h-5.16v5.01h-1.38v-10.68h1.38Z"/>
      <path d="M135.04,138.8c0,3.68-2.23,5.62-4.96,5.62s-4.8-2.19-4.8-5.42c0-3.39,2.11-5.61,4.96-5.61s4.8,2.23,4.8,5.4Zm-8.29,.18c0,2.28,1.24,4.32,3.41,4.32s3.42-2.01,3.42-4.44c0-2.12-1.11-4.34-3.41-4.34s-3.42,2.11-3.42,4.45Z"/>
    </g>
    <g>
      <path d="M117.95,22.91v4.47h5.16v-4.47h1.39v10.68h-1.39v-5.01h-5.16v5.01h-1.38v-10.68h1.38Z"/>
      <path d="M136.03,28.14c0,3.68-2.23,5.62-4.96,5.62s-4.8-2.19-4.8-5.42c0-3.39,2.11-5.61,4.96-5.61s4.8,2.23,4.8,5.4Zm-8.29,.17c0,2.28,1.24,4.32,3.41,4.32s3.42-2.01,3.42-4.44c0-2.12-1.11-4.34-3.41-4.34s-3.42,2.11-3.42,4.45Z"/>
    </g>
    <g>
      <path d="M151.47,.17V4.64h5.17V.17h1.39V10.85h-1.39V5.85h-5.17v5.01h-1.38V.17h1.38Z"/>
      <path d="M169.55,5.4c0,3.68-2.23,5.62-4.96,5.62s-4.8-2.19-4.8-5.42c0-3.39,2.11-5.61,4.96-5.61s4.8,2.23,4.8,5.4Zm-8.29,.17c0,2.28,1.24,4.32,3.41,4.32s3.42-2.01,3.42-4.44c0-2.12-1.11-4.34-3.41-4.34s-3.42,2.11-3.42,4.45Z"/>
    </g>
    <g>
      <path d="M168.48,143.15v4.47h5.17v-4.47h1.39v10.68h-1.39v-5.01h-5.17v5.01h-1.38v-10.68h1.38Z"/>
      <path d="M186.56,148.38c0,3.68-2.23,5.62-4.96,5.62s-4.8-2.19-4.8-5.42c0-3.39,2.11-5.61,4.96-5.61s4.8,2.23,4.8,5.4Zm-8.29,.18c0,2.28,1.24,4.32,3.41,4.32s3.42-2.01,3.42-4.44c0-2.12-1.11-4.34-3.41-4.34s-3.42,2.11-3.42,4.45Z"/>
    </g>
    <g>
      <path d="M238.32,123.25c0,3.68-2.23,5.62-4.96,5.62s-4.8-2.19-4.8-5.42c0-3.39,2.11-5.61,4.96-5.61s4.8,2.23,4.8,5.4Zm-8.29,.18c0,2.28,1.24,4.32,3.41,4.32s3.42-2.01,3.42-4.44c0-2.12-1.11-4.34-3.41-4.34s-3.42,2.11-3.42,4.45Z"/>
      <path d="M241.49,118.03v4.47h5.17v-4.47h1.39v10.68h-1.39v-5.01h-5.17v5.01h-1.38v-10.68h1.38Z"/>
    </g>
    <g>
      <path d="M238.32,83.48c0,3.68-2.23,5.62-4.96,5.62s-4.8-2.19-4.8-5.42c0-3.39,2.11-5.61,4.96-5.61s4.8,2.23,4.8,5.4Zm-8.29,.18c0,2.28,1.24,4.32,3.41,4.32s3.42-2.01,3.42-4.44c0-2.12-1.11-4.34-3.41-4.34s-3.42,2.11-3.42,4.45Z"/>
      <path d="M241.49,78.25v4.47h5.17v-4.47h1.39v10.68h-1.39v-5.01h-5.17v5.01h-1.38v-10.68h1.38Z"/>
    </g>
    <g>
      <path d="M205.04,27.06c0,3.68-2.23,5.62-4.96,5.62s-4.8-2.19-4.8-5.42c0-3.39,2.11-5.61,4.96-5.61s4.8,2.23,4.8,5.4Zm-8.29,.17c0,2.28,1.23,4.32,3.41,4.32s3.42-2.01,3.42-4.44c0-2.12-1.11-4.34-3.41-4.34s-3.42,2.11-3.42,4.45Z"/>
      <path d="M208.22,21.83v4.47h5.16v-4.47h1.39v10.68h-1.39v-5.01h-5.16v5.01h-1.38v-10.68h1.38Z"/>
    </g>
    <path d="M178.34,72.23v4.47h5.17v-4.47h1.39v10.68h-1.39v-5.01h-5.17v5.01h-1.38v-10.68h1.38Z"/>
    <path d="M102.74,83.48c0,3.68-2.23,5.62-4.96,5.62s-4.8-2.19-4.8-5.42c0-3.39,2.11-5.61,4.96-5.61s4.8,2.23,4.8,5.4Zm-8.29,.17c0,2.28,1.24,4.33,3.41,4.33s3.42-2.01,3.42-4.44c0-2.12-1.11-4.34-3.41-4.34s-3.42,2.11-3.42,4.45Z"/>
    <path d="M169.79,84.14c0,3.68-2.23,5.62-4.96,5.62s-4.8-2.19-4.8-5.42c0-3.39,2.11-5.61,4.96-5.61s4.8,2.23,4.8,5.4Zm-8.29,.17c0,2.28,1.24,4.33,3.41,4.33s3.42-2.01,3.42-4.44c0-2.12-1.11-4.34-3.41-4.34s-3.42,2.11-3.42,4.45Z"/>
    <path d="M186.8,110.98c0,3.68-2.23,5.62-4.96,5.62s-4.8-2.19-4.8-5.42c0-3.39,2.11-5.61,4.96-5.61s4.8,2.23,4.8,5.4Zm-8.29,.17c0,2.28,1.24,4.33,3.41,4.33s3.42-2.01,3.42-4.44c0-2.12-1.11-4.34-3.41-4.34s-3.42,2.11-3.42,4.45Z"/>
    <path d="M169.79,65.81c0,3.68-2.23,5.62-4.96,5.62s-4.8-2.19-4.8-5.42c0-3.39,2.11-5.61,4.96-5.61s4.8,2.23,4.8,5.4Zm-8.29,.17c0,2.28,1.24,4.33,3.41,4.33s3.42-2.01,3.42-4.44c0-2.12-1.11-4.34-3.41-4.34s-3.42,2.11-3.42,4.45Z"/>
    <path d="M203.46,64.69c0,3.68-2.23,5.62-4.96,5.62s-4.8-2.19-4.8-5.42c0-3.39,2.11-5.61,4.96-5.61s4.8,2.23,4.8,5.4Zm-8.29,.17c0,2.28,1.24,4.32,3.41,4.32s3.42-2.01,3.42-4.44c0-2.12-1.11-4.34-3.41-4.34s-3.42,2.11-3.42,4.45Z"/>
    <path d="M186.8,110.89c0,3.68-2.23,5.62-4.96,5.62s-4.8-2.19-4.8-5.42c0-3.39,2.11-5.61,4.96-5.61s4.8,2.23,4.8,5.4Zm-8.29,.18c0,2.28,1.24,4.32,3.41,4.32s3.42-2.01,3.42-4.44c0-2.12-1.11-4.34-3.41-4.34s-3.42,2.11-3.42,4.45Z"/>
    <path d="M169.79,65.81c0,3.68-2.23,5.62-4.96,5.62s-4.8-2.19-4.8-5.42c0-3.39,2.11-5.61,4.96-5.61s4.8,2.23,4.8,5.4Zm-8.29,.17c0,2.28,1.24,4.32,3.41,4.32s3.42-2.01,3.42-4.44c0-2.12-1.11-4.34-3.41-4.34s-3.42,2.11-3.42,4.45Z"/>
    <path d="M102.74,138.8c0,3.68-2.23,5.62-4.96,5.62s-4.8-2.19-4.8-5.42c0-3.39,2.11-5.61,4.96-5.61s4.8,2.23,4.8,5.4Zm-8.29,.17c0,2.28,1.24,4.33,3.41,4.33s3.42-2.01,3.42-4.44c0-2.12-1.11-4.34-3.41-4.34s-3.42,2.11-3.42,4.45Z"/>
    <path d="M102.74,83.48c0,3.68-2.23,5.62-4.96,5.62s-4.8-2.19-4.8-5.42c0-3.39,2.11-5.61,4.96-5.61s4.8,2.23,4.8,5.4Zm-8.29,.17c0,2.28,1.24,4.33,3.41,4.33s3.42-2.01,3.42-4.44c0-2.12-1.11-4.34-3.41-4.34s-3.42,2.11-3.42,4.45Z"/>
    <g>
      <line class="cls-3" x1="138.7" y1="68.03" x2="134.55" y2="61.03"/>
      <line class="cls-3" x1="142.22" y1="64.52" x2="139.32" y2="59.62"/>
      <line class="cls-3" x1="144.46" y1="61.06" x2="142.8" y2="58.27"/>
      <line class="cls-3" x1="146.37" y1="58.23" x2="145.96" y2="57.53"/>
    </g>
    <g>
      <line class="cls-1" x1="176.86" y1="69.56" x2="185" y2="69.59"/>
      <line class="cls-1" x1="178.07" y1="65.54" x2="183.77" y2="65.56"/>
      <line class="cls-1" x1="179.29" y1="62.46" x2="182.54" y2="62.47"/>
      <line class="cls-1" x1="180.5" y1="59.87" x2="181.32" y2="59.88"/>
    </g>
    <g>
      <line class="cls-1" x1="194.68" y1="72.47" x2="202.82" y2="72.44"/>
      <line class="cls-1" x1="195.9" y1="76.49" x2="201.59" y2="76.47"/>
      <line class="cls-1" x1="197.11" y1="79.58" x2="200.37" y2="79.56"/>
      <line class="cls-1" x1="198.33" y1="82.16" x2="199.14" y2="82.16"/>
    </g>
    <g>
      <line class="cls-4" x1="190.92" y1="27.99" x2="195.06" y2="35"/>
      <line class="cls-4" x1="187.38" y1="31.47" x2="190.27" y2="36.37"/>
      <line class="cls-4" x1="184.81" y1="34.38" x2="186.46" y2="37.19"/>
      <line class="cls-4" x1="182.76" y1="37" x2="183.17" y2="37.7"/>
    </g>
    <g>
      <line class="cls-4" x1="228.67" y1="116.01" x2="224.06" y2="122.71"/>
      <line class="cls-4" x1="224.02" y1="114.27" x2="220.79" y2="118.96"/>
      <line class="cls-4" x1="220.3" y1="113.16" x2="218.45" y2="115.84"/>
      <line class="cls-4" x1="217.06" y1="112.4" x2="216.6" y2="113.07"/>
    </g>
    <g>
      <line class="cls-4" x1="160.64" y1="14.55" x2="168.77" y2="14.67"/>
      <line class="cls-4" x1="161.76" y1="19.39" x2="167.46" y2="19.47"/>
      <line class="cls-4" x1="162.91" y1="23.1" x2="166.17" y2="23.14"/>
      <line class="cls-4" x1="164.08" y1="26.21" x2="164.89" y2="26.22"/>
    </g>
  </g>
</svg>