<?xml version="1.0" encoding="UTF-8"?>
<svg id="Layer_2" data-name="Layer 2" xmlns="http://www.w3.org/2000/svg" viewBox="0 0 246.55 153.07">
  <defs>
    <style>
      .cls-1 {
        stroke-width: 1.08px;
      }

      .cls-1, .cls-2, .cls-3, .cls-4 {
        fill: none;
        stroke: #1d1d1b;
      }

      .cls-1, .cls-3, .cls-4 {
        stroke-linecap: round;
        stroke-linejoin: round;
      }

      .cls-2 {
        stroke-miterlimit: 10;
        stroke-width: 1.32px;
      }

      .cls-3 {
        stroke-width: 1.18px;
      }

      .cls-4 {
        stroke-width: 1.18px;
      }
    </style>
  </defs>
  <g id="_Ñëîé_1" data-name="Ñëîé 1">
    <g>
      <polygon class="cls-2" points="62.53 64.37 46.44 55.08 30.35 64.37 30.35 82.95 46.44 92.24 62.53 82.95 62.53 64.37"/>
      <polyline class="cls-2" points="90.95 85.95 80.68 91.87 80.68 110.45 96.77 119.74 112.86 110.45 112.86 91.87 103.04 86.2"/>
      <polygon class="cls-2" points="145.02 91.87 128.93 82.58 112.84 91.87 112.84 110.45 128.93 119.74 145.02 110.45 145.02 91.87"/>
      <polyline class="cls-2" points="186.53 114.19 197.55 120.56 213.64 111.27 213.64 92.69 197.55 83.4 181.46 92.69 181.46 103.17"/>
      <polyline class="cls-2" points="169.45 62.59 179.5 56.78 179.5 38.2 163.41 28.91 147.32 38.2 147.32 56.78 157.48 62.64"/>
      <polygon points="80.37 91.84 62.72 80.67 60.8 84.55 80.37 91.84"/>
      <polygon points="180.66 92.29 172.08 83.8 169.64 87.38 180.66 92.29"/>
      <polygon points="146.73 37.85 138.16 29.36 135.71 32.94 146.73 37.85"/>
      <polygon points="214.63 92.08 225.65 87.14 223.19 83.57 214.63 92.08"/>
      <line class="cls-2" x1="34.08" y1="66.56" x2="45.57" y2="59.78"/>
      <line class="cls-2" x1="117.44" y1="93.54" x2="128.93" y2="86.76"/>
      <line class="cls-2" x1="186.43" y1="143.17" x2="197.92" y2="136.38"/>
      <line class="cls-2" x1="145.23" y1="91.79" x2="156.72" y2="85"/>
      <line class="cls-2" x1="33.31" y1="80.57" x2="46.44" y2="88.23"/>
      <line class="cls-2" x1="115.94" y1="108.45" x2="129.07" y2="116.11"/>
      <line class="cls-2" x1="179.63" y1="56.8" x2="190.63" y2="63.23"/>
      <line class="cls-2" x1="59.36" y1="65.73" x2="59.47" y2="81.92"/>
      <line class="cls-2" x1="141.82" y1="93.06" x2="141.93" y2="109.26"/>
      <line class="cls-2" x1="197.5" y1="120.76" x2="197.61" y2="136.95"/>
      <line class="cls-2" x1="30.35" y1="64.37" x2="21.06" y2="57.92"/>
      <line class="cls-2" x1="94.62" y1="118.49" x2="94.48" y2="129.92"/>
      <line class="cls-2" x1="99.45" y1="118.49" x2="99.32" y2="129.92"/>
      <line class="cls-2" x1="129.23" y1="119.61" x2="129.1" y2="131.03"/>
      <g>
        <path d="M1.37,50.53v4.44H6.5v-4.44h1.39v10.61h-1.39v-4.98H1.37v4.98H0v-10.61H1.37Z"/>
        <path d="M19.34,55.73c0,3.65-2.22,5.59-4.93,5.59s-4.77-2.17-4.77-5.39c0-3.37,2.09-5.57,4.93-5.57s4.77,2.22,4.77,5.37Zm-8.24,.17c0,2.27,1.23,4.3,3.39,4.3s3.4-2,3.4-4.41c0-2.11-1.1-4.32-3.39-4.32s-3.4,2.09-3.4,4.43Z"/>
      </g>
      <g>
        <path d="M116.25,132.76v4.44h5.13v-4.44h1.39v10.61h-1.39v-4.98h-5.13v4.98h-1.37v-10.61h1.37Z"/>
        <path d="M134.23,137.96c0,3.65-2.22,5.59-4.93,5.59s-4.77-2.17-4.77-5.39c0-3.37,2.09-5.57,4.93-5.57s4.77,2.22,4.77,5.37Zm-8.24,.17c0,2.27,1.23,4.3,3.39,4.3s3.4-2,3.4-4.41c0-2.11-1.1-4.31-3.39-4.31s-3.4,2.09-3.4,4.43Z"/>
      </g>
      <g>
        <path d="M117.24,22.77v4.44h5.13v-4.44h1.39v10.61h-1.39v-4.98h-5.13v4.98h-1.37v-10.61h1.37Z"/>
        <path d="M135.21,27.97c0,3.65-2.22,5.59-4.93,5.59s-4.77-2.17-4.77-5.39c0-3.37,2.09-5.57,4.93-5.57s4.77,2.22,4.77,5.37Zm-8.24,.17c0,2.27,1.23,4.3,3.39,4.3s3.4-2,3.4-4.41c0-2.11-1.1-4.31-3.39-4.31s-3.4,2.09-3.4,4.43Z"/>
      </g>
      <g>
        <path d="M150.56,.17V4.61h5.13V.17h1.38V10.79h-1.38V5.81h-5.13v4.98h-1.37V.17h1.37Z"/>
        <path d="M168.53,5.37c0,3.65-2.22,5.59-4.93,5.59s-4.77-2.17-4.77-5.39c0-3.37,2.09-5.57,4.93-5.57s4.77,2.22,4.77,5.37Zm-8.24,.17c0,2.27,1.23,4.3,3.39,4.3s3.4-2,3.4-4.41c0-2.11-1.1-4.31-3.39-4.31s-3.4,2.09-3.4,4.43Z"/>
      </g>
      <g>
        <path d="M167.46,142.28v4.44h5.13v-4.44h1.38v10.61h-1.38v-4.98h-5.13v4.98h-1.37v-10.61h1.37Z"/>
        <path d="M185.44,147.48c0,3.65-2.22,5.59-4.93,5.59s-4.77-2.17-4.77-5.39c0-3.37,2.09-5.57,4.93-5.57s4.77,2.22,4.77,5.37Zm-8.24,.17c0,2.27,1.23,4.3,3.39,4.3s3.4-2,3.4-4.41c0-2.11-1.1-4.31-3.39-4.31s-3.4,2.09-3.4,4.43Z"/>
      </g>
      <g>
        <path d="M236.88,122.51c0,3.65-2.22,5.59-4.93,5.59s-4.77-2.17-4.77-5.39c0-3.37,2.1-5.57,4.93-5.57s4.77,2.22,4.77,5.37Zm-8.24,.17c0,2.27,1.23,4.3,3.39,4.3s3.4-2,3.4-4.41c0-2.11-1.1-4.31-3.39-4.31s-3.4,2.09-3.4,4.43Z"/>
        <path d="M240.03,117.31v4.44h5.13v-4.44h1.39v10.61h-1.39v-4.98h-5.13v4.98h-1.37v-10.61h1.37Z"/>
      </g>
      <g>
        <path d="M236.88,82.98c0,3.65-2.22,5.59-4.93,5.59s-4.77-2.17-4.77-5.39c0-3.37,2.1-5.57,4.93-5.57s4.77,2.22,4.77,5.37Zm-8.24,.17c0,2.27,1.23,4.3,3.39,4.3s3.4-2,3.4-4.41c0-2.11-1.1-4.32-3.39-4.32s-3.4,2.09-3.4,4.43Z"/>
        <path d="M240.03,77.78v4.44h5.13v-4.44h1.39v10.61h-1.39v-4.98h-5.13v4.98h-1.37v-10.61h1.37Z"/>
      </g>
      <g>
        <path d="M203.81,26.89c0,3.65-2.22,5.59-4.93,5.59s-4.77-2.17-4.77-5.39c0-3.37,2.1-5.57,4.93-5.57s4.77,2.22,4.77,5.37Zm-8.24,.17c0,2.27,1.23,4.3,3.39,4.3s3.4-2,3.4-4.41c0-2.11-1.1-4.31-3.39-4.31s-3.4,2.09-3.4,4.43Z"/>
        <path d="M206.96,21.7v4.44h5.13v-4.44h1.39v10.61h-1.39v-4.98h-5.13v4.98h-1.37v-10.61h1.37Z"/>
      </g>
      <path d="M177.27,71.8v4.44h5.13v-4.44h1.39v10.61h-1.39v-4.98h-5.13v4.98h-1.37v-10.61h1.37Z"/>
      <path d="M102.12,82.98c0,3.65-2.22,5.59-4.93,5.59s-4.77-2.17-4.77-5.39c0-3.37,2.09-5.58,4.93-5.58s4.77,2.22,4.77,5.37Zm-8.24,.17c0,2.27,1.23,4.3,3.39,4.3s3.4-2,3.4-4.41c0-2.11-1.1-4.31-3.39-4.31s-3.4,2.09-3.4,4.43Z"/>
      <path d="M168.76,83.63c0,3.65-2.22,5.59-4.93,5.59s-4.77-2.17-4.77-5.39c0-3.37,2.1-5.58,4.93-5.58s4.77,2.22,4.77,5.37Zm-8.24,.17c0,2.27,1.23,4.3,3.39,4.3s3.4-2,3.4-4.41c0-2.11-1.1-4.32-3.39-4.32s-3.4,2.09-3.4,4.43Z"/>
      <path d="M202.23,64.3c0,3.65-2.22,5.59-4.93,5.59s-4.77-2.17-4.77-5.39c0-3.37,2.09-5.57,4.93-5.57s4.77,2.22,4.77,5.37Zm-8.24,.17c0,2.27,1.23,4.3,3.39,4.3s3.4-2,3.4-4.41c0-2.11-1.1-4.32-3.39-4.32s-3.4,2.09-3.4,4.43Z"/>
      <path d="M185.67,110.22c0,3.65-2.22,5.59-4.93,5.59s-4.77-2.17-4.77-5.39c0-3.37,2.1-5.57,4.93-5.57s4.77,2.22,4.77,5.37Zm-8.24,.17c0,2.27,1.23,4.3,3.39,4.3s3.4-2,3.4-4.41c0-2.11-1.1-4.31-3.39-4.31s-3.4,2.09-3.4,4.43Z"/>
      <path d="M168.2,65.41c0,3.65-2.22,5.59-4.93,5.59s-4.77-2.17-4.77-5.39c0-3.37,2.1-5.57,4.93-5.57s4.77,2.22,4.77,5.37Zm-8.24,.17c0,2.27,1.23,4.3,3.39,4.3s3.4-2,3.4-4.41c0-2.11-1.1-4.31-3.39-4.31s-3.4,2.09-3.4,4.43Z"/>
      <path d="M102.12,137.96c0,3.65-2.22,5.59-4.93,5.59s-4.77-2.17-4.77-5.39c0-3.37,2.09-5.58,4.93-5.58s4.77,2.22,4.77,5.37Zm-8.24,.17c0,2.27,1.23,4.3,3.39,4.3s3.4-2,3.4-4.41c0-2.11-1.1-4.31-3.39-4.31s-3.4,2.09-3.4,4.43Z"/>
      <g>
        <line class="cls-3" x1="137.86" y1="67.61" x2="133.74" y2="60.66"/>
        <line class="cls-3" x1="141.36" y1="64.13" x2="138.48" y2="59.26"/>
        <line class="cls-3" x1="143.59" y1="60.7" x2="141.94" y2="57.91"/>
        <line class="cls-3" x1="145.49" y1="57.88" x2="145.08" y2="57.18"/>
      </g>
      <g>
        <line class="cls-1" x1="175.79" y1="69.14" x2="183.88" y2="69.17"/>
        <line class="cls-1" x1="177" y1="65.15" x2="182.66" y2="65.17"/>
        <line class="cls-1" x1="178.21" y1="62.08" x2="181.44" y2="62.09"/>
        <line class="cls-1" x1="179.41" y1="59.51" x2="180.22" y2="59.52"/>
      </g>
      <g>
        <line class="cls-1" x1="193.51" y1="72.03" x2="201.6" y2="72"/>
        <line class="cls-1" x1="194.72" y1="76.03" x2="200.38" y2="76.01"/>
        <line class="cls-1" x1="195.92" y1="79.1" x2="199.16" y2="79.08"/>
        <line class="cls-1" x1="197.13" y1="81.66" x2="197.94" y2="81.66"/>
      </g>
      <g>
        <line class="cls-4" x1="189.77" y1="27.82" x2="193.88" y2="34.78"/>
        <line class="cls-4" x1="186.25" y1="31.28" x2="189.13" y2="36.16"/>
        <line class="cls-4" x1="183.69" y1="34.18" x2="185.34" y2="36.96"/>
        <line class="cls-4" x1="181.65" y1="36.77" x2="182.06" y2="37.47"/>
      </g>
      <g>
        <line class="cls-4" x1="227.29" y1="115.31" x2="222.71" y2="121.97"/>
        <line class="cls-4" x1="222.67" y1="113.58" x2="219.46" y2="118.24"/>
        <line class="cls-4" x1="218.97" y1="112.48" x2="217.14" y2="115.15"/>
        <line class="cls-4" x1="215.75" y1="111.72" x2="215.3" y2="112.39"/>
      </g>
      <g>
        <line class="cls-4" x1="159.67" y1="14.46" x2="167.75" y2="14.58"/>
        <line class="cls-4" x1="160.79" y1="19.27" x2="166.45" y2="19.35"/>
        <line class="cls-4" x1="161.93" y1="22.96" x2="165.16" y2="23.01"/>
        <line class="cls-4" x1="163.09" y1="26.05" x2="163.89" y2="26.07"/>
      </g>
    </g>
  </g>
</svg>