<?xml version="1.0" encoding="UTF-8"?>
<svg id="Layer_2" data-name="Layer 2" xmlns="http://www.w3.org/2000/svg" viewBox="0 0 170.08 120.2">
  <defs>
    <style>
      .cls-1, .cls-2 {
        fill: #fff;
      }

      .cls-2 {
        fill-rule: evenodd;
      }
    </style>
  </defs>
  <g id="_Ñëîé_1" data-name="Ñëîé 1">
    <g>
      <g>
        <path class="cls-1" d="M81.75,99.2c5.71,.46,9.83,4.16,9.83,10.41,0,6.62-4.33,10.12-9.83,10.5,0,0-.66,.09-1.57,.09s-1.67-.05-1.67-.05c-5.66-.37-9.82-4.04-9.82-10.33,0-6.62,4.33-10.12,9.82-10.58,0,0,.52-.11,1.64-.11s1.6,.07,1.6,.07m-3.24,2.54c-3.92,.5-6.3,3.83-6.3,8s2.42,7.37,6.3,7.86v-15.86Zm3.24,15.9c3.92-.58,6.31-3.92,6.31-8.04s-2.38-7.33-6.31-7.87v15.9Z"/>
        <path class="cls-1" d="M108.95,114.9c0,1.75,.07,3.46,.28,4.83h-3.2l-.28-2.54h-.12c-1.1,1.58-3.2,3-5.99,3-3.95,0-5.98-2.87-5.98-5.79,0-4.87,4.2-7.54,11.77-7.5v-.41c0-1.63-.44-4.66-4.45-4.62-1.86,0-3.76,.54-5.13,1.5l-.82-2.46c1.62-1.04,4.01-1.75,6.47-1.75,5.99,0,7.44,4.21,7.44,8.21v7.53Zm-3.44-5.46c-3.88-.08-8.29,.63-8.29,4.54,0,2.41,1.54,3.5,3.32,3.5,2.58,0,4.24-1.66,4.81-3.37,.12-.42,.16-.84,.16-1.17v-3.5Z"/>
        <path class="cls-1" d="M130.45,99.58h4.37l3.52,10.16c.52,1.5,1.33,3.95,1.78,5.54h.08c.44-1.55,1.53-4.71,2.34-6.92l3.11-8.78h4.4l1.38,20.15h-3.4l-.44-9.62c-.09-2.21-.24-4.75-.32-7.21h-.12c-.53,1.84-1.09,3.42-2.19,6.54l-3.76,10.16h-2.54l-3.47-9.99c-.64-1.87-1.49-4.79-1.99-6.66h-.15c-.08,2.37-.17,5.04-.29,7.25l-.52,9.53h-3.28l1.5-20.15Z"/>
        <path class="cls-1" d="M169.8,114.9c0,1.75,.07,3.46,.28,4.83h-3.2l-.28-2.54h-.12c-1.09,1.58-3.19,3-5.99,3-3.96,0-5.98-2.87-5.98-5.79,0-4.87,4.21-7.54,11.77-7.5v-.41c0-1.63-.44-4.66-4.44-4.62-1.86,0-3.77,.54-5.14,1.5l-.81-2.46c1.62-1.04,4-1.75,6.47-1.75,5.99,0,7.45,4.21,7.45,8.21v7.53Zm-3.45-5.46c-3.88-.08-8.29,.63-8.29,4.54,0,2.41,1.54,3.5,3.32,3.5,2.59,0,4.24-1.66,4.81-3.37,.12-.42,.16-.84,.16-1.17v-3.5Z"/>
        <path class="cls-1" d="M112.57,119.71h3.53c0-.1-.01-7.15-.01-7.23v-.42c7.57,.04,11.76-2.62,11.76-7.49,0-2.92-2.02-5.79-5.98-5.79-2.79,0-4.89,1.41-5.98,2.99h-.12l-.29-2.54h-3.2c.21,1.38,.29,3.08,.29,4.83v15.65Zm3.43-13.69c0-.33,.04-.75,.16-1.17,.57-1.71,2.23-3.37,4.81-3.37,1.77,0,3.32,1.08,3.32,3.5,0,3.92-4.41,4.62-8.3,4.54v-3.5Z"/>
        <polygon class="cls-1" points="16.21 99.55 16.21 119.71 12.66 119.71 12.66 102.42 3.56 102.42 3.56 119.71 0 119.71 0 99.55 16.21 99.55"/>
        <path class="cls-1" d="M23.58,99.55v8.49c0,3.17-.08,5.21-.25,8.08l.13,.04c1.2-2.46,1.86-3.88,3.19-6.21l6.11-10.41h4.17v20.15h-3.4v-8.54c0-3.29,.08-5,.25-8.29h-.09c-1.29,2.63-2.1,4.25-3.28,6.3-1.86,3.11-4.04,6.99-6.11,10.53h-4.13v-20.15h3.4Z"/>
        <path class="cls-1" d="M44.52,99.55v8.74h.85l7.32-8.74h4.33l-8.49,9.07c3.15,.37,5.05,2.54,6.6,6.16,.52,1.34,1.16,3.29,2.05,4.92h-3.72c-.53-.87-1.17-2.46-1.82-4.12-1.33-3.25-3.15-4.75-6.43-4.75h-.69v8.87h-3.51v-20.15h3.51Z"/>
        <path class="cls-1" d="M64.74,109.61c0,1.48-1.2,2.68-2.68,2.68s-2.68-1.2-2.68-2.68,1.2-2.68,2.68-2.68,2.68,1.2,2.68,2.68"/>
      </g>
      <g>
        <path class="cls-2" d="M97.43,6.88s-.15-1.22,1.35-1.06c1.1,.12,1.7,.34,3,1.29,6.94,5.06,11.29,14.2,11.29,24.14,0,8.5-3.29,15.65-8.55,21.19-1.23,1.3-2.35,2.36-3.35,4.23v25.24c-.02,.21-.03,2.24-.03,2.24l-.03,.86,17.99,.08s1.29-.12,2.47-.82c1.01-.6,1.76-1.41,2.55-2.55,.36-.51,.71-1.04,1.04-1.57,5.24-8.26,7.88-18.18,7.88-28.8C133.02,24.45,113.96,1.41,89.9,.02h0c-.9-.05-1.5,0-2.09,.63-.58,.64-.63,2.2-.63,2.2V85.08s10.24-.08,10.24-.08"/>
        <path class="cls-2" d="M83.45,2.85s-.05-1.55-.63-2.2h0c-.59-.64-1.19-.69-2.09-.63-24.07,1.4-43.13,24.44-43.13,51.33,0,10.63,2.64,20.55,7.88,28.8,.34,.53,.69,1.06,1.04,1.57,.79,1.14,1.54,1.95,2.55,2.55,1.18,.7,2.47,.82,2.47,.82h14.16l3.28-.08v-1.14l.02-2.19v-25.83c-.88-1.39-1.84-2.32-2.88-3.41-5.26-5.54-8.56-12.68-8.56-21.19,0-9.94,4.36-19.08,11.3-24.14,1.3-.95,1.89-1.17,3-1.29,1.5-.16,1.34,1.06,1.34,1.06V85h10.27"/>
      </g>
    </g>
  </g>
</svg>