<?xml version="1.0" encoding="UTF-8"?>
<svg id="Layer_2" data-name="Layer 2" xmlns="http://www.w3.org/2000/svg" viewBox="0 0 186.46 153.07">
  <defs>
    <style>
      .cls-1 {
        stroke-width: .75px;
      }

      .cls-1, .cls-2 {
        stroke-miterlimit: 10;
      }

      .cls-1, .cls-2, .cls-3, .cls-4 {
        fill: none;
        stroke: #1d1d1b;
      }

      .cls-3, .cls-4 {
        stroke-linecap: square;
        stroke-linejoin: round;
      }

      .cls-4 {
        stroke-width: .92px;
      }
    </style>
  </defs>
  <g id="_Ñëîé_1" data-name="Ñëîé 1">
    <g>
      <polygon points="56.96 83.34 37.73 91.49 40.29 95.93 56.96 83.34"/>
      <line class="cls-2" x1="149.48" y1="57.35" x2="149.45" y2="42.52"/>
      <line class="cls-1" x1="32.09" y1="30.64" x2="32.08" y2="14"/>
      <line class="cls-2" x1="158.25" y1="127.88" x2="175.22" y2="118.08"/>
      <line class="cls-2" x1="97.29" y1="137.46" x2="104.48" y2="117.54"/>
      <line class="cls-2" x1="91.87" y1="135.62" x2="99.05" y2="115.7"/>
      <g>
        <line class="cls-3" x1="73.66" y1="111.65" x2="69.11" y2="106.18"/>
        <line class="cls-4" x1="72.4" y1="104.13" x2="76.43" y2="108.65"/>
        <line class="cls-3" x1="78.79" y1="106.02" x2="75.6" y2="102.19"/>
        <line class="cls-3" x1="81.02" y1="102.75" x2="79.19" y2="100.56"/>
        <line class="cls-3" x1="83.32" y1="99.45" x2="82.87" y2="98.9"/>
      </g>
      <polyline class="cls-2" points="39.39 42.79 57.44 53.78 57.54 83.01 85.46 96.94"/>
      <path d="M146.42,28.82v5.26h6.08v-5.26h1.64v12.57h-1.64v-5.89h-6.08v5.89h-1.62v-12.57h1.62Z"/>
      <path d="M29.11,0V5.26h6.08V0h1.64V12.57h-1.64V6.68h-6.08v5.89h-1.62V0h1.62Z"/>
      <path d="M178.73,108.01v5.26h6.08v-5.26h1.64v12.57h-1.64v-5.89h-6.08v5.89h-1.62v-12.57h1.62Z"/>
      <path d="M60.14,109.2v5.26h6.08v-5.26h1.64v12.57h-1.64v-5.89h-6.08v5.89h-1.62v-12.57h1.62Z"/>
      <path d="M1.62,72.6v5.26H7.7v-5.26h1.64v12.57h-1.64v-5.89H1.62v5.89H0v-12.57H1.62Z"/>
      <polyline class="cls-2" points="96.77 81.37 85.46 96.94 101.26 118.7 126.83 110.39 126.83 83.5 107.43 77.2"/>
      <path d="M106.53,74.25c0,4.33-2.63,6.62-5.84,6.62s-5.65-2.57-5.65-6.38c0-3.99,2.48-6.6,5.84-6.6s5.65,2.63,5.65,6.36Zm-9.75,.21c0,2.69,1.45,5.09,4.01,5.09s4.03-2.37,4.03-5.22c0-2.5-1.31-5.11-4.01-5.11s-4.03,2.48-4.03,5.24Z"/>
      <path d="M37.57,38.76c0,4.33-2.63,6.62-5.84,6.62s-5.65-2.57-5.65-6.38c0-3.99,2.48-6.6,5.84-6.6s5.65,2.63,5.65,6.36Zm-9.75,.21c0,2.69,1.45,5.09,4.01,5.09s4.03-2.37,4.03-5.22c0-2.5-1.31-5.11-4.01-5.11s-4.03,2.48-4.03,5.24Z"/>
      <path d="M37.86,97.56c0,4.33-2.63,6.62-5.84,6.62s-5.65-2.57-5.65-6.38c0-3.99,2.48-6.6,5.84-6.6s5.65,2.63,5.65,6.36Zm-9.75,.21c0,2.69,1.45,5.09,4.01,5.09s4.03-2.37,4.03-5.22c0-2.5-1.31-5.11-4.01-5.11s-4.03,2.48-4.03,5.24Z"/>
      <line class="cls-2" x1="126.81" y1="83.46" x2="143.62" y2="70.52"/>
      <line class="cls-2" x1="126.96" y1="110.49" x2="143.47" y2="123.82"/>
      <line class="cls-2" x1="11.79" y1="84.63" x2="24.03" y2="94.52"/>
      <path d="M155.21,64.84c0,4.33-2.63,6.62-5.84,6.62s-5.65-2.57-5.65-6.38c0-3.99,2.48-6.6,5.84-6.6s5.65,2.63,5.65,6.36Zm-9.75,.21c0,2.69,1.45,5.09,4.01,5.09s4.03-2.37,4.03-5.22c0-2.5-1.31-5.11-4.01-5.11s-4.03,2.48-4.03,5.24Z"/>
      <path d="M97.81,146.45c0,4.33-2.63,6.62-5.84,6.62s-5.65-2.57-5.65-6.38c0-3.99,2.48-6.6,5.84-6.6s5.65,2.63,5.65,6.36Zm-9.75,.21c0,2.69,1.45,5.09,4.01,5.09s4.03-2.37,4.03-5.22c0-2.5-1.31-5.11-4.01-5.11s-4.03,2.48-4.03,5.24Z"/>
      <path d="M156.23,128.67c0,4.33-2.63,6.62-5.84,6.62s-5.65-2.57-5.65-6.38c0-3.99,2.48-6.6,5.84-6.6s5.65,2.63,5.65,6.36Zm-9.75,.21c0,2.69,1.45,5.09,4.01,5.09s4.03-2.37,4.03-5.22c0-2.5-1.31-5.11-4.01-5.11s-4.03,2.48-4.03,5.24Z"/>
    </g>
  </g>
</svg>