<?xml version="1.0" encoding="UTF-8"?>
<svg id="Layer_2" data-name="Layer 2" xmlns="http://www.w3.org/2000/svg" viewBox="0 0 139.86 82.05">
  <defs>
    <style>
      .cls-1 {
        stroke-width: 1.24px;
      }

      .cls-1, .cls-2, .cls-3, .cls-4, .cls-5 {
        fill: none;
        stroke: #1d1d1b;
      }

      .cls-1, .cls-3 {
        stroke-linecap: round;
        stroke-linejoin: round;
      }

      .cls-2, .cls-4, .cls-5 {
        stroke-miterlimit: 10;
      }

      .cls-3 {
        stroke-width: 1.08px;
      }

      .cls-4 {
        stroke-width: 1.32px;
      }

      .cls-5 {
        stroke-width: 1.02px;
      }
    </style>
  </defs>
  <g id="_Ñëîé_1" data-name="Ñëîé 1">
    <polyline class="cls-2" points="89.46 25.89 76.08 35.6 83.14 57.33 105.98 57.33 113.04 35.6 99.48 25.75"/>
    <line class="cls-4" x1="115.9" y1="70.74" x2="106.03" y2="57.33"/>
    <line class="cls-4" x1="73.26" y1="71.02" x2="83.01" y2="57.33"/>
    <line class="cls-5" x1="112.36" y1="38.33" x2="129.51" y2="32.92"/>
    <line class="cls-5" x1="110.81" y1="33.71" x2="127.97" y2="28.31"/>
    <g>
      <path d="M1.38,23.45v4.47H6.54v-4.47h1.39v10.68h-1.39v-5.01H1.38v5.01H0v-10.68H1.38Z"/>
      <path d="M19.46,28.68c0,3.68-2.23,5.62-4.96,5.62s-4.8-2.19-4.8-5.42c0-3.39,2.11-5.61,4.96-5.61s4.8,2.23,4.8,5.4Zm-8.29,.17c0,2.28,1.24,4.32,3.41,4.32s3.42-2.01,3.42-4.44c0-2.12-1.11-4.34-3.41-4.34s-3.42,2.11-3.42,4.45Z"/>
    </g>
    <g>
      <path d="M56.42,71.02v4.47h5.16v-4.47h1.39v10.68h-1.39v-5.01h-5.16v5.01h-1.38v-10.68h1.38Z"/>
      <path d="M74.51,76.25c0,3.68-2.23,5.62-4.96,5.62s-4.8-2.19-4.8-5.42c0-3.39,2.11-5.61,4.96-5.61s4.8,2.23,4.8,5.4Zm-8.29,.18c0,2.28,1.24,4.32,3.41,4.32s3.42-2.01,3.42-4.44c0-2.12-1.11-4.34-3.41-4.34s-3.42,2.11-3.42,4.45Z"/>
    </g>
    <g>
      <path d="M36.39,.17V4.64h5.17V.17h1.39V10.85h-1.39V5.85h-5.17v5.01h-1.38V.17h1.38Z"/>
      <path d="M54.48,5.4c0,3.68-2.23,5.62-4.96,5.62s-4.8-2.19-4.8-5.42c0-3.39,2.11-5.61,4.96-5.61s4.8,2.23,4.8,5.4Zm-8.29,.17c0,2.28,1.24,4.32,3.41,4.32s3.42-2.01,3.42-4.44c0-2.12-1.11-4.34-3.41-4.34s-3.42,2.11-3.42,4.45Z"/>
    </g>
    <g>
      <path d="M124.33,76.43c0,3.68-2.23,5.62-4.96,5.62s-4.8-2.19-4.8-5.42c0-3.39,2.11-5.61,4.96-5.61s4.8,2.23,4.8,5.4Zm-8.29,.18c0,2.28,1.24,4.32,3.41,4.32s3.42-2.01,3.42-4.44c0-2.12-1.11-4.34-3.41-4.34s-3.42,2.11-3.42,4.45Z"/>
      <path d="M127.51,71.2v4.47h5.17v-4.47h1.39v10.68h-1.39v-5.01h-5.17v5.01h-1.38v-10.68h1.38Z"/>
    </g>
    <path d="M73.42,10.09v4.47h5.17v-4.47h1.39v10.68h-1.39v-5.01h-5.17v5.01h-1.38V10.09h1.38Z"/>
    <path d="M99.52,22.54c0,3.68-2.23,5.62-4.96,5.62s-4.8-2.19-4.8-5.42c0-3.39,2.11-5.61,4.96-5.61s4.8,2.23,4.8,5.4Zm-8.29,.17c0,2.28,1.24,4.33,3.41,4.33s3.42-2.01,3.42-4.44c0-2.12-1.11-4.34-3.41-4.34s-3.42,2.11-3.42,4.45Z"/>
    <path d="M139.86,28.06c0,3.68-2.23,5.62-4.96,5.62s-4.8-2.19-4.8-5.42c0-3.39,2.11-5.61,4.96-5.61s4.8,2.23,4.8,5.4Zm-8.29,.17c0,2.28,1.24,4.33,3.41,4.33s3.42-2.01,3.42-4.44c0-2.12-1.11-4.34-3.41-4.34s-3.42,2.11-3.42,4.45Z"/>
    <path d="M99.44,22.52c0,3.68-2.23,5.62-4.96,5.62s-4.8-2.19-4.8-5.42c0-3.39,2.11-5.61,4.96-5.61s4.8,2.23,4.8,5.4Zm-8.29,.17c0,2.28,1.24,4.33,3.41,4.33s3.42-2.01,3.42-4.44c0-2.12-1.11-4.34-3.41-4.34s-3.42,2.11-3.42,4.45Z"/>
    <g>
      <line class="cls-3" x1="72.02" y1="23.52" x2="80.15" y2="23.49"/>
      <line class="cls-3" x1="73.23" y1="27.55" x2="78.92" y2="27.53"/>
      <line class="cls-3" x1="74.44" y1="30.63" x2="77.7" y2="30.62"/>
      <line class="cls-3" x1="75.66" y1="33.21" x2="76.47" y2="33.21"/>
    </g>
    <g>
      <line class="cls-1" x1="47.88" y1="13.98" x2="55.89" y2="12.57"/>
      <line class="cls-1" x1="49.99" y1="19.04" x2="55.59" y2="18.05"/>
      <line class="cls-1" x1="51.88" y1="22.87" x2="55.09" y2="22.3"/>
      <line class="cls-1" x1="53.67" y1="26.05" x2="54.47" y2="25.91"/>
    </g>
    <polyline class="cls-4" points="20.46 31.8 34.56 39.79 54.33 28.64 76.08 35.42"/>
    <line class="cls-5" x1="85.65" y1="53.96" x2="103.67" y2="53.96"/>
  </g>
</svg>