<?xml version="1.0" standalone="no"?>
<!DOCTYPE svg PUBLIC "-//W3C//DTD SVG 1.1//EN" "http://www.w3.org/Graphics/SVG/1.1/DTD/svg11.dtd" >
<svg xmlns="http://www.w3.org/2000/svg" xmlns:xlink="http://www.w3.org/1999/xlink" version="1.1" viewBox="-10 0 5927 1001">
   <path fill="#ed3334"
d="M1338 172q161 19 161 157q0 142 -161 157v40h-100v-41q-161 -14 -161 -156q0 -138 161 -157v-29h100v29zM1338 406q26 -8 40 -28.5t14 -49t-14.5 -50.5t-39.5 -31v159zM1238 407v-158q-24 8 -39 30t-15 49.5t15 49t39 29.5v0zM1771 463h-124l-18 63h-112l134 -383h120
l133 383h-115zM1748 380l-39 -138l-39 138h78zM1938 143h182q60 0 89.5 30.5t29.5 88t-32.5 90t-98.5 32.5h-60v142h-110v-383v0zM2048 307h27q32 0 44.5 -12t12.5 -30.5t-11 -31t-42 -12.5h-31v86zM2295 143h145l55 233l55 -233h144v383h-90v-292l-69 292h-81l-69 -292v292
h-90v-383zM2982 463h-124l-18 63h-112l134 -383h120l133 383h-115zM2959 380l-39 -138l-39 138h78zM3472 526h-124l-43 -99q-15 -35 -23.5 -43.5t-22.5 -8.5v151h-110v-383h110v147q14 -1 22 -11t25 -58q12 -36 24.5 -51.5t41 -22.5t88.5 -7v81h-5q-28 0 -41.5 11.5
t-22.5 37.5t-19 38.5t-27 20.5q23 8 41 28.5t38 63.5zM3497 335q0 -94 48.5 -146t136 -52t135.5 51t48 144q0 67 -21 110t-60.5 66.5t-99 23.5t-99 -20.5t-64 -65t-24.5 -111.5v0zM3607 335q0 58 20 83.5t54.5 25.5t54 -25t19.5 -89q0 -54 -20 -79t-54 -25t-54.5 25
t-20.5 84h1zM4264 526h-110v-289h-120v289h-110v-383h340v383zM4336 143h294v82h-184v61h170v78h-170v75h189v87h-299v-383zM5034 143v383h-103v-210l-132 210h-104v-383h103v212l133 -212h103zM4953 49q-5 33 -29 53t-57.5 20t-58 -20.5t-29.5 -52.5h42q10 33 44 33
q37 0 47 -33h41zM5430 526h-124l-43 -99q-15 -35 -23.5 -43.5t-23.5 -8.5v151h-109v-383h109v147q15 -1 23 -11t25 -58q12 -36 24.5 -51.5t41 -22.5t88.5 -7v81h-5q-28 0 -42 11.5t-22.5 37.5t-18.5 38.5t-27 20.5q23 8 41 28.5t37 63.5zM5687 463h-124l-18 63h-112
l134 -383h120l133 383h-115zM5664 380l-39 -138l-39 138h78zM5798 207v-89h36v9h-24v30h24v12l-3 -1l-21 -1v40h-12zM5834 118h4q12 0 18 2t10 8.5t4 15t-6 15t-19 7.5q4 3 7 5q5 5 10 12l15 24h-15l-12 -19q-5 -8 -8 -12t-6 -6l-2 -1v-12h2q8 0 12.5 -1.5t7 -5.5t2.5 -9
t-5 -9.5t-15 -4.5h-4v-9zM5834 239q-31 0 -52.5 -21.5t-21.5 -52.5t21.5 -52.5t52.5 -21.5v13q-26 0 -43.5 18t-17.5 43t17.5 43t43.5 18v13zM5834 91q30 0 51.5 21.5t21.5 52.5t-21.5 52.5t-51.5 21.5v-13q25 0 42.5 -18t17.5 -43t-17.5 -43t-42.5 -18v-13zM290 181
q27 -11 75.5 -17t101.5 -5.5t96 6.5q46 6 72 17q37 16 83 44q49 29 90 60q80 60 103 107v0q23 48 25 92q1 48 -23.5 86.5t-73.5 63.5q-65 32 -165 36q-54 30 -101 44.5t-93 15t-96 -12.5q-46 -12 -104 -39q-101 -4 -171 -39q-53 -26 -81 -68.5t-26 -93.5q1 -42 22 -85v0
q22 -44 98 -105q41 -32 90 -63q44 -28 76 -44h2v0zM468 202q-50 -1 -93.5 4t-67.5 14q-31 15 -73 42q-46 29 -85 60q-68 54 -86 90v0q-17 35 -18 67q-2 38 19.5 69.5t64.5 53.5q62 31 157 34h5l4 2q54 26 97 37q46 13 87 12.5t84 -14.5t94 -42l5 -3h5q94 -3 153 -32
q38 -19 56 -47t17 -62.5t-21 -74.5v0q-18 -37 -90 -92q-40 -30 -86 -57q-43 -26 -78 -41v0q-22 -10 -64 -15q-39 -5 -86 -5v0zM167 238q-7 5 -15.5 4t-14 -8.5t-4.5 -16t8 -14.5q36 -27 77.5 -53t72.5 -41l3 -1q38 -14 114 -20q-14 -5 -22 -16.5t-8 -25.5q0 -19 14 -32.5
t34 -13.5q14 0 25.5 7t17.5 19q6 -12 17.5 -19t24.5 -7q20 0 34 13.5t14 32.5q0 14 -8 26t-22 17q73 5 108 20.5t78 40.5t81 53q7 5 8.5 14t-4 16t-14 8.5t-16.5 -3.5q-36 -26 -76.5 -50t-72.5 -38h-1q-22 -10 -63 -15q-39 -5 -87.5 -5.5t-92.5 4.5t-67 14h-1
q-29 14 -68 38.5t-74 51.5v0zM469 66q-7 14 -21 21h41q-13 -7 -20 -21zM4088 688h29v3q-2 14 -7 24.5t-13.5 18t-19.5 11t-24.5 3.5t-24.5 -3.5t-19.5 -11t-13.5 -18t-7 -24.5v-3h31v3q2 6 4.5 11t6.5 8.5t9 5t13 1.5t13.5 -1.5t9.5 -4.5t6.5 -8.5t4.5 -11.5v-3h2v0z
M3959 770h40v162l100 -162h44v226h-42v-160l-100 160h-44v-226h2v0zM5652 770h40v92h98v-92h43v226h-43v-98h-98v98h-43v-226h3zM5415 770h40v162l99 -162h45v226h-43v-160l-100 160h-44v-226h3v0zM5266 894v-32l22 -1q8 0 12 -1t8 -3.5t7.5 -6t5 -8t1.5 -11t-2.5 -12
t-7 -9.5t-10.5 -6.5t-13 -2.5q-30 0 -42 36l-1 2l-41 -7l1 -3q9 -32 29.5 -48t53.5 -16q18 0 32.5 5t24.5 15t15.5 22t5.5 26t-6.5 24.5t-17.5 18.5q7 4 12.5 9t10 12.5t6.5 16t2 18.5q0 15 -5.5 27.5t-17 22t-27 14.5t-35.5 5q-38 0 -60.5 -17.5t-29.5 -51.5v-3l40 -8l1 2
q2 10 6.5 18t11.5 13.5t15 8t17 2.5t16.5 -2.5t13.5 -7.5t8.5 -11t2.5 -14q0 -12 -7 -21q-4 -4 -7.5 -7t-7.5 -4t-12 -1.5t-20 -0.5h-11v-2zM5127 887q-10 3 -23 6q-15 4 -35 7q-12 1 -20 3t-12.5 4t-8 4.5t-5.5 6.5t-3.5 8t-1.5 8q0 7 2.5 12.5t8 10.5t13 7t18.5 2t20 -2
t17 -6.5t14 -11t9 -13t4.5 -15.5t1.5 -21zM5130 971q-8 7 -17 12q-10 7 -20 10.5t-20.5 5.5t-21.5 2q-19 0 -33 -4.5t-24.5 -14t-15.5 -21t-5 -26.5q0 -8 2 -15.5t6 -15t8.5 -13t11 -9.5t13.5 -7l14 -6v0q6 -1 15 -2l19 -3q22 -3 38 -6t26 -6l1 -8q0 -11 -2.5 -18.5
t-7.5 -11.5q-7 -6 -17 -9t-23.5 -3t-22.5 2t-15 6.5t-10.5 12.5t-7.5 19l-1 2l-41 -6v-2q3 -12 7 -22t10 -17.5t14.5 -13.5t20 -10t24 -6t27 -2t26 2t21 5.5t16 7.5t11 9.5t7.5 12t5 14.5v1q1 5 1 13l1 21v50q0 27 0.5 43t1.5 22.5t3.5 13t5.5 12.5l2 4h-45l-1 -1
q-3 -6 -5 -14q-1 -4 -2 -10v0zM4843 770h129v37h-89v189h-43v-226h3zM4745 887q-9 3 -22 6q-16 4 -36 7q-11 1 -19.5 3t-13 4t-7.5 4.5t-5.5 6.5t-4 8t-1.5 8q0 7 3 12.5t8 10.5t13 7t18.5 2t19.5 -2t17 -6.5t14 -11t9.5 -13t5 -15.5t1.5 -21v-10zM4748 971q-8 7 -16 12
q-11 7 -20.5 10.5t-20.5 5.5t-22 2q-18 0 -32.5 -4.5t-25 -14t-15.5 -21t-5 -26.5q0 -8 2 -15.5t6 -15t9 -13t11 -9.5t13 -7t15 -6v0q5 -1 14 -2l19 -3q23 -3 38.5 -6t26.5 -6v-8q0 -11 -2.5 -18.5t-7.5 -11.5q-7 -6 -17 -9t-23.5 -3t-22.5 2t-15 6.5t-10.5 12t-7.5 19.5v2
l-42 -6l1 -2q2 -12 6.5 -22t10 -17.5t14.5 -13.5t20 -10t24 -6t27 -2t26 2t21 5.5t16 7.5t11 9.5t7 12t5 14.5v1q1 5 2 13v21v50q0 26 0.5 42.5t1.5 23t3.5 13t5.5 12.5l2 4h-45l-1 -1q-3 -6 -4 -14zM4316 770h59l57 171l62 -171h58v226h-43v-165l-60 165h-37l-57 -172v172
h-42v-226h3zM3695 960h37q17 0 29.5 -2t19.5 -6t10.5 -10t3.5 -14t-2.5 -13.5t-8 -11t-17 -8t-30.5 -2.5h-42v67v0zM3655 770h40v86h45q23 0 41 5t31 14t19.5 22t6.5 30q0 28 -21 49q-11 10 -28 15t-41 5h-95v-226h2v0zM3864 770h40v226h-43v-226h3zM3419 770h41v92h98v-92
h43v226h-43v-98h-98v98h-43v-226h2zM3184 770h40v44q0 14 1 23.5t2.5 15.5t5 10.5t9.5 9t13 6.5t16.5 2t23 -2.5t28.5 -7.5v-101h43v226h-43v-88q-15 5 -30.5 7.5t-30.5 2.5q-26 0 -46 -13q-10 -7 -17 -15t-10.5 -17.5t-5.5 -20t-2 -21.5v-61h3zM3007 859h117
q-1 -11 -4.5 -20.5t-8.5 -16.5q-9 -10 -20 -15.5t-24 -5.5t-23 4.5t-18.5 12.5t-13 18.5t-5.5 22.5v0zM3127 919l41 6v3q-5 17 -13.5 30.5t-21.5 23t-29 14.5t-36 5q-24 0 -43.5 -7.5t-34.5 -23t-22 -37t-7 -49t7.5 -49.5t22 -38t33.5 -24t42 -8t41.5 8t33 23.5t21.5 37
t7 49.5v12h-164q1 17 6 29.5t13.5 22t19.5 14t24 4.5q10 0 18.5 -2.5t15.5 -8t12.5 -13.5t9.5 -20l1 -2h2v0zM2767 770h181v37h-71v189h-42v-189h-71v-37h3zM2556 770h177v226h-43v-189h-94v189h-42v-226h2zM2458 887q-9 3 -22 6q-15 4 -36 7q-11 1 -19 3t-12.5 4t-8 4.5
t-6 6.5t-3.5 8t-1 8q0 7 2.5 12.5t8 10.5t13 7t18 2t20 -2t17.5 -6.5t14 -11t9 -13t4.5 -15.5t1.5 -21v-10zM2462 971q-9 7 -17 12q-10 7 -20 10.5t-20.5 5.5t-21.5 2q-19 0 -33.5 -4.5t-24.5 -14t-15 -21t-5 -26.5q0 -8 1.5 -16t5.5 -15t9 -12.5t11.5 -9.5t13.5 -7l14 -6v0
q6 -1 14 -2l20 -3q22 -3 38 -6t26 -6v-8q0 -11 -2.5 -18.5t-6.5 -11.5q-7 -6 -17 -9t-23.5 -3t-23 2t-15 6.5t-10 12t-7.5 19.5l-1 2l-42 -6l1 -2q3 -12 7 -22t10 -17.5t14.5 -13.5t19.5 -10t24 -6t27.5 -2t26 2t20.5 5.5t16 7.5t11.5 9.5t7.5 12t5 14.5v1q1 5 1 13l1 21v50
q0 26 0.5 42.5t1.5 23t3 13t6 12.5l2 4h-45l-1 -1q-3 -6 -5 -14z" />
</svg>
