<?xml version="1.0"?>
<svg xmlns="http://www.w3.org/2000/svg" xmlns:xlink="http://www.w3.org/1999/xlink" viewBox="0 0 103.29 43.8">
  <mask id="a" height="44" maskUnits="userSpaceOnUse" width="105" x="-1" y="0">
    <path d="m-1 0h105v44h-105z" fill="#fff"/>
    <path d="m3.94 21.83c7.53-10.93 34.91-19.83 61.16-19.83q3.34 0 6.44.19a20.2 20.2 0 0 1 3.55 0c20.23 2 30.81 10 24.26 19.57-7.6 11.07-35.17 20-61.62 20l-2-.07h-.68l.62-.07c-24.92-.43-39.07-9.14-31.73-19.79zm30.75 19.87h.4-.21zm-.86 0h.86a8.53 8.53 0 0 0 -.86-.03z" fill-rule="evenodd"/>
  </mask>
  <clipPath id="b">
    <path d="m2 1.8h99.29v40h-99.29z"/>
  </clipPath>
  <path d="m3.94 21.83c7.53-10.93 34.91-19.83 61.16-19.83q3.34 0 6.44.19a20.2 20.2 0 0 1 3.55 0c20.23 2 30.81 10 24.26 19.57-7.6 11.07-35.17 20-61.62 20l-2-.07h-.68l.62-.07c-24.92-.43-39.07-9.14-31.73-19.79zm30.75 19.87h.4-.21zm-.86 0h.86a8.53 8.53 0 0 0 -.86-.03z" fill="#fff" fill-rule="evenodd"/>
  <g mask="url(#a)">
    <path d="m3.94 21.83 1.64 1.17zm67.6-19.64-.12 2h.29zm3.55 0 .19-2zm24.26 19.58 1.65 1.13zm-61.62 20-.11 2h.11zm-2-.07v-2zm-.06-.08.24 2-.2-4zm-.73.08-.17-2zm-.1 0-.39 2h.28.28zm-1.05-.07v-2l-.1 4zm31.31-41.63a127.75 127.75 0 0 0 -38.22 5.91 75.92 75.92 0 0 0 -14.88 6.49c-4.2 2.45-7.6 5.23-9.71 8.3l3.29 2.3a26.34 26.34 0 0 1 8.42-7.15 71.54 71.54 0 0 1 14.12-6.13 123.37 123.37 0 0 1 36.98-5.72zm6.56.19c-2.1-.12-4.29-.19-6.56-.19v4q3.29 0 6.32.19zm3.6 0a21.09 21.09 0 0 0 -3.89 0l.34 4a18.2 18.2 0 0 1 3.2 0zm25.74 22.7a11.15 11.15 0 0 0 2.13-8.32 11.75 11.75 0 0 0 -4.64-7c-4.8-3.8-13-6.34-23.22-7.34l-.39 4c10 1 17.23 3.41 21.13 6.5a7.78 7.78 0 0 1 3.18 4.6 7.16 7.16 0 0 1 -1.5 5.35zm-63.27 20.91a128.29 128.29 0 0 0 38.5-6 76.78 76.78 0 0 0 15-6.55 30.38 30.38 0 0 0 9.77-8.35l-3.29-2.26a26.7 26.7 0 0 1 -8.49 7.21 72.39 72.39 0 0 1 -14.22 6.15 124.23 124.23 0 0 1 -37.27 5.8zm-2-.07 1.9.07.21-4-2-.06zm-.68 0h.68l.1-4h-.67zm.43-4-.56.06.37 4 .67-.07zm-33.19-19.03c-2.09 3.03-2.81 6.19-1.91 9.22s3.17 5.41 6.28 7.34c6.18 3.85 16.39 6.16 29 6.39l.08-4c-12.34-.23-21.69-2.5-27-5.79-2.64-1.63-4.06-3.39-4.56-5.07s-.18-3.53 1.4-5.79zm32.86 19h-.4l-.13 4h.42zm0 4h.13l-.37-4h-.1zm-.1 0h.1l-.34-4h-.09zm-.6 0 .78-3.93-.34-.05zm-.72 0h.89l.13-4h-.83zm1.2-4a9.53 9.53 0 0 0 -1.1 0v4a5.09 5.09 0 0 1 .62 0z" fill="#fff"/>
  </g>
  <g clip-path="url(#b)">
    <path d="m3.94 21.83c7.53-10.93 34.91-19.83 61.16-19.83s41.33 8.9 33.79 19.83-34.89 19.84-61.1 19.84-41.39-8.9-33.85-19.84z" fill="#0080c5"/>
    <path d="m33.83 41.67a5.3 5.3 0 0 1 1.05.07c6.42-.53 12.77-4 16.4-14l.07-.13a8 8 0 0 0 1.65-.37 9 9 0 0 0 6.42-5.54c1.45-4-1.33-5.47-3.71-5.8h-.13l.07-.19c4.76-14.24 16.46-13.78 19.44-13.51 20.23 2 30.81 10 24.26 19.57-7.6 11.07-35.17 20-61.62 20-1.26-.03-2.58-.03-3.9-.1z" fill="#7bc043"/>
    <path d="m52.87 25.46c1.12-.53 2-2.18 2.51-3.56l.07-.2c.53-1.51 1.06-3.62 0-3.95a2.92 2.92 0 0 0 -.46-.13l-.53 1.38-1.13 3-1 2.7-.33.93a1.49 1.49 0 0 0 .53-.14.65.65 0 0 0 .34-.03z" fill="#7bc043"/>
    <path d="m51.15 17.62c-1.92 0-3.11 3.09-3.44 4.08-.66 1.91-.73 3.69.53 4zm1.72 7.84c1.12-.53 2-2.18 2.51-3.56l.07-.2c.53-1.51 1.06-3.62 0-3.95a2.92 2.92 0 0 0 -.46-.13l-.53 1.38-1.13 3-1 2.7-.33.93a1.49 1.49 0 0 0 .53-.14.65.65 0 0 0 .34-.03zm-1.06-9.62c3.64-10.08 10-13.51 16.4-14q3.67.11 6.94.4c-3-.27-14.68-.73-19.44 13.51l-.06.19h.13c2.45.33 5.22 1.78 3.7 5.8a8.86 8.86 0 0 1 -6.41 5.54c-.6.13-1.19.26-1.66.33l-.06.13c-3.64 10.08-9.92 13.51-16.4 14q-3.68-.1-6.94-.4c3 .26 14.68.66 19.44-13.51l.06-.2c-2.44-.33-5.29-1.84-3.77-5.93s5.36-5.47 8.07-5.8zm-30.88 11.66c-1.78-.72-2.71-2.37-1.59-5.53a8.9 8.9 0 0 1 7.87-6.13c2.91 0 4.83 1.65 3.24 5.93a2.17 2.17 0 0 1 -.26.59l-.4 1h-6.87c-.6 1.85-.14 3 2.57 2.64-.49 1.17-3.04 2-4.56 1.5zm6.07-6.5c1-2.39.41-3-.38-3s-2 .46-2.91 2.76l-.13.33zm55.54 2c1-2.31 1.79-4 2.91-6.33l3.31-.59a43.35 43.35 0 0 1 .2 7.18 59.67 59.67 0 0 1 5.16-6.59l3.57-.59c-.47 2.11-1.79 6.52-3.11 10.61a39.61 39.61 0 0 1 -4.76 3.1c1.12-3.43 2.51-7.58 2.91-8.64l-3.51 4.95h-2.63v-.53l.07-4.42-.07.2c-.19.53-.79 2.11-1 2.64l-.59 1.53-.73 1.72h-.27c-1.46 0-2.31-1.52-1.85-3.43a3.48 3.48 0 0 1 .26-.79zm-75.69 1c0-.13.06-.26.06-.4l2.71-7.6a49.25 49.25 0 0 1 4.9-3l-2.78 8h2.84l1.52-4.22 4.1-.78-4.1 11.4h-3.83l1.45-4.21h-2.72l-1.58 4.24h-.66c-1.45 0-2.31-1.58-1.91-3.43zm34.58.13a8 8 0 0 1 -6.43 3.5c-2.78 0-5-1.84-3.51-5.93a8.68 8.68 0 0 1 7.81-5.86c2.71 0 5 1.84 3.5 5.86a13.55 13.55 0 0 1 -1.37 2.44zm-6.08-2.5c-.67 1.78-1.19 3.95.26 3.95s2.58-2.11 3.18-3.76a7.62 7.62 0 0 0 .59-3.16.91.91 0 0 0 -1-.79c-1.38.01-2.44 2.13-3.03 3.77zm29.82 3.82 1.26-3.36h-.2c-.2 0-.47-.07-.6-.07a2.39 2.39 0 0 0 -2.38 1.72c-.46 1.51.27 1.77.8 1.77s1.12-.05 1.12-.05zm2-5.4c.66-1.85-.2-2.18-1-2.18a10 10 0 0 0 -3.3.53l.19-2a16.62 16.62 0 0 1 4.23-.59c2.52 0 4.77.72 3.31 4.68l-2.39 6.51a28.83 28.83 0 0 1 -5.22.6c-2 0-4.83-.46-3.57-3.89 1.19-3.19 4.43-3.71 6.28-3.71a5.88 5.88 0 0 1 1.06.06h.39zm7.41 5.46c.2 0 .33.07.53.07 1.12 0 2.38-1.58 3.11-3.76.06-.13.06-.26.13-.39.86-2.83-.07-3.49-.8-3.49h-.92l-.33 1-2 5.34-.19.46-.2.53a3.87 3.87 0 0 0 .65.25zm.4 2.05h-.34a5.25 5.25 0 0 1 -1.45-.27l-1.32 3.56-.07.13h-.66c-1.45 0-2.31-1.51-1.85-3.42.07-.2.07-.33.13-.53l.07-.13 3.77-10.35a19.58 19.58 0 0 1 5-.66c2.85 0 5.42 1.52 3.84 5.87a13.82 13.82 0 0 1 -1.19 2.37 7.13 7.13 0 0 1 -5.91 3.44z" fill="#fff"/>
  </g>
</svg>
